<mxfile host="app.diagrams.net" modified="2024-02-08T20:40:14.896Z" agent="Mozilla/5.0 (Windows NT 10.0; Win64; x64) AppleWebKit/537.36 (KHTML, like Gecko) Chrome/121.0.0.0 Safari/537.36" etag="MfRksxhhSv1KMLAukUg7" version="23.1.1" type="device">
  <diagram name="Side-1" id="M_6rrZ2diby-f0foozvZ">
    <mxGraphModel dx="2555" dy="2119" grid="1" gridSize="10" guides="1" tooltips="1" connect="1" arrows="1" fold="1" page="1" pageScale="1" pageWidth="827" pageHeight="1169" math="0" shadow="0">
      <root>
        <mxCell id="0" />
        <mxCell id="1" parent="0" />
        <mxCell id="9GyI2wmewtFSDXP9VZMQ-3" value="" style="rounded=1;whiteSpace=wrap;html=1;fillColor=#dae8fc;strokeColor=#6c8ebf;" parent="1" vertex="1">
          <mxGeometry x="120" y="-20" width="470" height="430" as="geometry" />
        </mxCell>
        <mxCell id="9GyI2wmewtFSDXP9VZMQ-2" value="" style="rounded=1;whiteSpace=wrap;html=1;fillColor=#dae8fc;strokeColor=#6c8ebf;" parent="1" vertex="1">
          <mxGeometry x="160" y="480" width="410" height="330" as="geometry" />
        </mxCell>
        <mxCell id="P2snbEfWk6xn78w6VL1k-24" style="edgeStyle=orthogonalEdgeStyle;rounded=0;orthogonalLoop=1;jettySize=auto;html=1;entryX=0;entryY=0.5;entryDx=0;entryDy=0;curved=1;exitX=0;exitY=0.5;exitDx=0;exitDy=0;" edge="1" parent="1" source="9GyI2wmewtFSDXP9VZMQ-1" target="9GyI2wmewtFSDXP9VZMQ-25">
          <mxGeometry relative="1" as="geometry" />
        </mxCell>
        <mxCell id="9GyI2wmewtFSDXP9VZMQ-1" value="Waiting for new TCP connections" style="rounded=1;whiteSpace=wrap;html=1;" parent="1" vertex="1">
          <mxGeometry x="195" y="220" width="120" height="60" as="geometry" />
        </mxCell>
        <mxCell id="9GyI2wmewtFSDXP9VZMQ-18" value="" style="rounded=1;whiteSpace=wrap;html=1;fillColor=#dae8fc;strokeColor=#6c8ebf;" parent="1" vertex="1">
          <mxGeometry x="640" y="120" width="450" height="270" as="geometry" />
        </mxCell>
        <mxCell id="9GyI2wmewtFSDXP9VZMQ-31" style="edgeStyle=orthogonalEdgeStyle;rounded=0;orthogonalLoop=1;jettySize=auto;html=1;curved=1;" parent="1" source="9GyI2wmewtFSDXP9VZMQ-19" target="9GyI2wmewtFSDXP9VZMQ-22" edge="1">
          <mxGeometry relative="1" as="geometry">
            <Array as="points">
              <mxPoint x="240" y="580" />
              <mxPoint x="495" y="580" />
            </Array>
          </mxGeometry>
        </mxCell>
        <mxCell id="9GyI2wmewtFSDXP9VZMQ-19" value="Idle" style="rounded=1;whiteSpace=wrap;html=1;" parent="1" vertex="1">
          <mxGeometry x="185" y="610" width="120" height="60" as="geometry" />
        </mxCell>
        <mxCell id="9GyI2wmewtFSDXP9VZMQ-20" value="The blue background signifies a thread and the number at the top left signifies the count of the thears the application will use&amp;nbsp;" style="shape=note;whiteSpace=wrap;html=1;backgroundOutline=1;darkOpacity=0.05;size=32;" parent="1" vertex="1">
          <mxGeometry x="-120" y="140" width="190" height="150" as="geometry" />
        </mxCell>
        <mxCell id="9GyI2wmewtFSDXP9VZMQ-30" style="edgeStyle=orthogonalEdgeStyle;rounded=0;orthogonalLoop=1;jettySize=auto;html=1;curved=1;" parent="1" source="9GyI2wmewtFSDXP9VZMQ-22" target="9GyI2wmewtFSDXP9VZMQ-19" edge="1">
          <mxGeometry relative="1" as="geometry">
            <Array as="points">
              <mxPoint x="495" y="700" />
              <mxPoint x="240" y="700" />
            </Array>
          </mxGeometry>
        </mxCell>
        <mxCell id="9GyI2wmewtFSDXP9VZMQ-34" style="edgeStyle=orthogonalEdgeStyle;rounded=0;orthogonalLoop=1;jettySize=auto;html=1;curved=1;" parent="1" source="9GyI2wmewtFSDXP9VZMQ-22" target="9GyI2wmewtFSDXP9VZMQ-33" edge="1">
          <mxGeometry relative="1" as="geometry" />
        </mxCell>
        <mxCell id="9GyI2wmewtFSDXP9VZMQ-35" value="If client should be disconnected" style="edgeLabel;html=1;align=center;verticalAlign=middle;resizable=0;points=[];" parent="9GyI2wmewtFSDXP9VZMQ-34" vertex="1" connectable="0">
          <mxGeometry x="-0.1136" y="-2" relative="1" as="geometry">
            <mxPoint x="2" y="20" as="offset" />
          </mxGeometry>
        </mxCell>
        <mxCell id="P2snbEfWk6xn78w6VL1k-91" style="edgeStyle=orthogonalEdgeStyle;rounded=0;orthogonalLoop=1;jettySize=auto;html=1;dashed=1;dashPattern=8 8;" edge="1" parent="1" source="9GyI2wmewtFSDXP9VZMQ-22" target="P2snbEfWk6xn78w6VL1k-29">
          <mxGeometry relative="1" as="geometry">
            <Array as="points">
              <mxPoint x="630" y="640" />
              <mxPoint x="630" y="495" />
            </Array>
          </mxGeometry>
        </mxCell>
        <mxCell id="9GyI2wmewtFSDXP9VZMQ-22" value="Handle mqtt request" style="rounded=1;whiteSpace=wrap;html=1;" parent="1" vertex="1">
          <mxGeometry x="435" y="610" width="120" height="60" as="geometry" />
        </mxCell>
        <mxCell id="P2snbEfWk6xn78w6VL1k-20" style="edgeStyle=orthogonalEdgeStyle;rounded=0;orthogonalLoop=1;jettySize=auto;html=1;entryX=0.5;entryY=0;entryDx=0;entryDy=0;" edge="1" parent="1" source="9GyI2wmewtFSDXP9VZMQ-25" target="P2snbEfWk6xn78w6VL1k-19">
          <mxGeometry relative="1" as="geometry">
            <Array as="points">
              <mxPoint x="255" y="450" />
              <mxPoint x="290" y="450" />
            </Array>
          </mxGeometry>
        </mxCell>
        <mxCell id="P2snbEfWk6xn78w6VL1k-25" style="edgeStyle=orthogonalEdgeStyle;rounded=0;orthogonalLoop=1;jettySize=auto;html=1;entryX=1;entryY=0.5;entryDx=0;entryDy=0;curved=1;exitX=1;exitY=0.5;exitDx=0;exitDy=0;" edge="1" parent="1" source="9GyI2wmewtFSDXP9VZMQ-25" target="9GyI2wmewtFSDXP9VZMQ-1">
          <mxGeometry relative="1" as="geometry" />
        </mxCell>
        <mxCell id="9GyI2wmewtFSDXP9VZMQ-25" value="Start thread to handle client&amp;nbsp;" style="rounded=1;whiteSpace=wrap;html=1;" parent="1" vertex="1">
          <mxGeometry x="195" y="310" width="120" height="60" as="geometry" />
        </mxCell>
        <mxCell id="P2snbEfWk6xn78w6VL1k-92" style="edgeStyle=orthogonalEdgeStyle;rounded=0;orthogonalLoop=1;jettySize=auto;html=1;entryX=0;entryY=0.5;entryDx=0;entryDy=0;dashed=1;dashPattern=8 8;" edge="1" parent="1" source="9GyI2wmewtFSDXP9VZMQ-33" target="P2snbEfWk6xn78w6VL1k-29">
          <mxGeometry relative="1" as="geometry">
            <Array as="points">
              <mxPoint x="650" y="760" />
              <mxPoint x="650" y="495" />
            </Array>
          </mxGeometry>
        </mxCell>
        <mxCell id="9GyI2wmewtFSDXP9VZMQ-33" value="Disconnect client" style="rounded=1;whiteSpace=wrap;html=1;" parent="1" vertex="1">
          <mxGeometry x="435" y="730" width="120" height="60" as="geometry" />
        </mxCell>
        <mxCell id="9GyI2wmewtFSDXP9VZMQ-37" value="1" style="text;html=1;strokeColor=none;fillColor=none;align=center;verticalAlign=middle;whiteSpace=wrap;rounded=0;" parent="1" vertex="1">
          <mxGeometry x="150" y="-10" width="60" height="30" as="geometry" />
        </mxCell>
        <mxCell id="9GyI2wmewtFSDXP9VZMQ-38" value="n" style="text;html=1;strokeColor=none;fillColor=none;align=center;verticalAlign=middle;whiteSpace=wrap;rounded=0;" parent="1" vertex="1">
          <mxGeometry x="185" y="480" width="60" height="30" as="geometry" />
        </mxCell>
        <mxCell id="P2snbEfWk6xn78w6VL1k-33" style="edgeStyle=orthogonalEdgeStyle;rounded=0;orthogonalLoop=1;jettySize=auto;html=1;" edge="1" parent="1" source="P2snbEfWk6xn78w6VL1k-2" target="P2snbEfWk6xn78w6VL1k-32">
          <mxGeometry relative="1" as="geometry" />
        </mxCell>
        <mxCell id="P2snbEfWk6xn78w6VL1k-2" value="Start broker" style="rounded=1;whiteSpace=wrap;html=1;" vertex="1" parent="1">
          <mxGeometry x="305" y="30" width="120" height="60" as="geometry" />
        </mxCell>
        <mxCell id="P2snbEfWk6xn78w6VL1k-4" value="1" style="text;html=1;strokeColor=none;fillColor=none;align=center;verticalAlign=middle;whiteSpace=wrap;rounded=0;" vertex="1" parent="1">
          <mxGeometry x="660" y="131" width="60" height="30" as="geometry" />
        </mxCell>
        <mxCell id="P2snbEfWk6xn78w6VL1k-12" style="edgeStyle=orthogonalEdgeStyle;rounded=0;orthogonalLoop=1;jettySize=auto;html=1;entryX=0.5;entryY=1;entryDx=0;entryDy=0;curved=1;exitX=0.5;exitY=1;exitDx=0;exitDy=0;" edge="1" parent="1" source="P2snbEfWk6xn78w6VL1k-5" target="P2snbEfWk6xn78w6VL1k-10">
          <mxGeometry relative="1" as="geometry">
            <Array as="points">
              <mxPoint x="750" y="370" />
              <mxPoint x="965" y="370" />
            </Array>
          </mxGeometry>
        </mxCell>
        <mxCell id="P2snbEfWk6xn78w6VL1k-30" style="edgeStyle=orthogonalEdgeStyle;rounded=0;orthogonalLoop=1;jettySize=auto;html=1;dashed=1;dashPattern=8 8;" edge="1" parent="1" source="P2snbEfWk6xn78w6VL1k-5" target="P2snbEfWk6xn78w6VL1k-29">
          <mxGeometry relative="1" as="geometry" />
        </mxCell>
        <mxCell id="P2snbEfWk6xn78w6VL1k-5" value="Do needed actions based on state" style="rounded=1;whiteSpace=wrap;html=1;" vertex="1" parent="1">
          <mxGeometry x="690" y="240" width="120" height="60" as="geometry" />
        </mxCell>
        <mxCell id="P2snbEfWk6xn78w6VL1k-13" style="edgeStyle=orthogonalEdgeStyle;rounded=0;orthogonalLoop=1;jettySize=auto;html=1;entryX=0.5;entryY=0;entryDx=0;entryDy=0;curved=1;exitX=0.5;exitY=0;exitDx=0;exitDy=0;" edge="1" parent="1" source="P2snbEfWk6xn78w6VL1k-10" target="P2snbEfWk6xn78w6VL1k-5">
          <mxGeometry relative="1" as="geometry">
            <Array as="points">
              <mxPoint x="965" y="190" />
              <mxPoint x="750" y="190" />
            </Array>
          </mxGeometry>
        </mxCell>
        <mxCell id="P2snbEfWk6xn78w6VL1k-10" value="Idle" style="rounded=1;whiteSpace=wrap;html=1;" vertex="1" parent="1">
          <mxGeometry x="905" y="240" width="120" height="60" as="geometry" />
        </mxCell>
        <mxCell id="P2snbEfWk6xn78w6VL1k-26" style="edgeStyle=orthogonalEdgeStyle;rounded=0;orthogonalLoop=1;jettySize=auto;html=1;" edge="1" parent="1" source="P2snbEfWk6xn78w6VL1k-17" target="P2snbEfWk6xn78w6VL1k-5">
          <mxGeometry relative="1" as="geometry" />
        </mxCell>
        <mxCell id="P2snbEfWk6xn78w6VL1k-17" value="Start thread to keep track of actions neede based on state" style="rounded=1;whiteSpace=wrap;html=1;" vertex="1" parent="1">
          <mxGeometry x="365" y="280" width="190" height="60" as="geometry" />
        </mxCell>
        <mxCell id="P2snbEfWk6xn78w6VL1k-31" style="edgeStyle=orthogonalEdgeStyle;rounded=0;orthogonalLoop=1;jettySize=auto;html=1;dashed=1;dashPattern=8 8;" edge="1" parent="1" source="P2snbEfWk6xn78w6VL1k-19" target="P2snbEfWk6xn78w6VL1k-29">
          <mxGeometry relative="1" as="geometry">
            <Array as="points">
              <mxPoint x="517" y="530" />
              <mxPoint x="517" y="495" />
            </Array>
          </mxGeometry>
        </mxCell>
        <mxCell id="P2snbEfWk6xn78w6VL1k-38" style="edgeStyle=orthogonalEdgeStyle;rounded=0;orthogonalLoop=1;jettySize=auto;html=1;" edge="1" parent="1" source="P2snbEfWk6xn78w6VL1k-19" target="9GyI2wmewtFSDXP9VZMQ-22">
          <mxGeometry relative="1" as="geometry">
            <Array as="points">
              <mxPoint x="495" y="550" />
            </Array>
          </mxGeometry>
        </mxCell>
        <mxCell id="P2snbEfWk6xn78w6VL1k-19" value="Create client in state" style="rounded=1;whiteSpace=wrap;html=1;" vertex="1" parent="1">
          <mxGeometry x="230" y="510" width="120" height="60" as="geometry" />
        </mxCell>
        <mxCell id="P2snbEfWk6xn78w6VL1k-27" value="Main thread" style="text;html=1;strokeColor=none;fillColor=none;align=center;verticalAlign=middle;whiteSpace=wrap;rounded=0;" vertex="1" parent="1">
          <mxGeometry x="287.5" y="-10" width="135" height="30" as="geometry" />
        </mxCell>
        <mxCell id="P2snbEfWk6xn78w6VL1k-28" value="State keeper thread" style="text;html=1;strokeColor=none;fillColor=none;align=center;verticalAlign=middle;whiteSpace=wrap;rounded=0;" vertex="1" parent="1">
          <mxGeometry x="780" y="131" width="140" height="30" as="geometry" />
        </mxCell>
        <mxCell id="P2snbEfWk6xn78w6VL1k-29" value="State" style="rounded=1;whiteSpace=wrap;html=1;fillColor=#fff2cc;strokeColor=#d6b656;" vertex="1" parent="1">
          <mxGeometry x="685" y="470" width="130" height="50" as="geometry" />
        </mxCell>
        <mxCell id="P2snbEfWk6xn78w6VL1k-34" style="edgeStyle=orthogonalEdgeStyle;rounded=0;orthogonalLoop=1;jettySize=auto;html=1;" edge="1" parent="1" source="P2snbEfWk6xn78w6VL1k-32" target="9GyI2wmewtFSDXP9VZMQ-1">
          <mxGeometry relative="1" as="geometry" />
        </mxCell>
        <mxCell id="P2snbEfWk6xn78w6VL1k-35" style="edgeStyle=orthogonalEdgeStyle;rounded=0;orthogonalLoop=1;jettySize=auto;html=1;" edge="1" parent="1" source="P2snbEfWk6xn78w6VL1k-32" target="P2snbEfWk6xn78w6VL1k-17">
          <mxGeometry relative="1" as="geometry" />
        </mxCell>
        <mxCell id="P2snbEfWk6xn78w6VL1k-36" style="edgeStyle=orthogonalEdgeStyle;rounded=0;orthogonalLoop=1;jettySize=auto;html=1;dashed=1;dashPattern=8 8;" edge="1" parent="1" source="P2snbEfWk6xn78w6VL1k-32" target="P2snbEfWk6xn78w6VL1k-29">
          <mxGeometry relative="1" as="geometry">
            <Array as="points">
              <mxPoint x="600" y="150" />
              <mxPoint x="600" y="495" />
            </Array>
          </mxGeometry>
        </mxCell>
        <mxCell id="P2snbEfWk6xn78w6VL1k-32" value="Create global state" style="rounded=1;whiteSpace=wrap;html=1;" vertex="1" parent="1">
          <mxGeometry x="305" y="120" width="120" height="60" as="geometry" />
        </mxCell>
        <mxCell id="P2snbEfWk6xn78w6VL1k-37" value="Client handler thread" style="text;html=1;strokeColor=none;fillColor=none;align=center;verticalAlign=middle;whiteSpace=wrap;rounded=0;" vertex="1" parent="1">
          <mxGeometry x="340" y="480" width="120" height="30" as="geometry" />
        </mxCell>
        <mxCell id="P2snbEfWk6xn78w6VL1k-39" value="BrokerState" style="swimlane;fontStyle=1;align=center;verticalAlign=middle;childLayout=stackLayout;horizontal=1;startSize=29;horizontalStack=0;resizeParent=1;resizeParentMax=0;resizeLast=0;collapsible=0;marginBottom=0;html=1;whiteSpace=wrap;" vertex="1" parent="1">
          <mxGeometry x="1220" y="260" width="140" height="54" as="geometry" />
        </mxCell>
        <mxCell id="P2snbEfWk6xn78w6VL1k-40" value="clients: Vec&amp;lt;Client&amp;gt;" style="text;html=1;strokeColor=none;fillColor=none;align=center;verticalAlign=middle;spacingLeft=4;spacingRight=4;overflow=hidden;rotatable=0;points=[[0,0.5],[1,0.5]];portConstraint=eastwest;whiteSpace=wrap;" vertex="1" parent="P2snbEfWk6xn78w6VL1k-39">
          <mxGeometry y="29" width="140" height="25" as="geometry" />
        </mxCell>
        <mxCell id="P2snbEfWk6xn78w6VL1k-42" value="Client" style="swimlane;fontStyle=1;align=center;verticalAlign=middle;childLayout=stackLayout;horizontal=1;startSize=29;horizontalStack=0;resizeParent=1;resizeParentMax=0;resizeLast=0;collapsible=0;marginBottom=0;html=1;whiteSpace=wrap;" vertex="1" parent="1">
          <mxGeometry x="1430" y="260" width="240" height="329" as="geometry" />
        </mxCell>
        <mxCell id="P2snbEfWk6xn78w6VL1k-43" value="&amp;nbsp;thread_id: f64" style="text;html=1;strokeColor=none;fillColor=none;align=center;verticalAlign=middle;spacingLeft=4;spacingRight=4;overflow=hidden;rotatable=0;points=[[0,0.5],[1,0.5]];portConstraint=eastwest;whiteSpace=wrap;" vertex="1" parent="P2snbEfWk6xn78w6VL1k-42">
          <mxGeometry y="29" width="240" height="25" as="geometry" />
        </mxCell>
        <mxCell id="P2snbEfWk6xn78w6VL1k-46" value="cancellation_requested: bool" style="text;html=1;strokeColor=none;fillColor=none;align=center;verticalAlign=middle;spacingLeft=4;spacingRight=4;overflow=hidden;rotatable=0;points=[[0,0.5],[1,0.5]];portConstraint=eastwest;whiteSpace=wrap;" vertex="1" parent="P2snbEfWk6xn78w6VL1k-42">
          <mxGeometry y="54" width="240" height="25" as="geometry" />
        </mxCell>
        <mxCell id="P2snbEfWk6xn78w6VL1k-47" value="subscriptions: Vec&amp;lt;Subscription&amp;gt;" style="text;html=1;strokeColor=none;fillColor=none;align=center;verticalAlign=middle;spacingLeft=4;spacingRight=4;overflow=hidden;rotatable=0;points=[[0,0.5],[1,0.5]];portConstraint=eastwest;whiteSpace=wrap;" vertex="1" parent="P2snbEfWk6xn78w6VL1k-42">
          <mxGeometry y="79" width="240" height="25" as="geometry" />
        </mxCell>
        <mxCell id="P2snbEfWk6xn78w6VL1k-48" value="last_connection: PrimitiveDateTime" style="text;html=1;strokeColor=none;fillColor=none;align=center;verticalAlign=middle;spacingLeft=4;spacingRight=4;overflow=hidden;rotatable=0;points=[[0,0.5],[1,0.5]];portConstraint=eastwest;whiteSpace=wrap;" vertex="1" parent="P2snbEfWk6xn78w6VL1k-42">
          <mxGeometry y="104" width="240" height="25" as="geometry" />
        </mxCell>
        <mxCell id="P2snbEfWk6xn78w6VL1k-49" value="client_id: String" style="text;html=1;strokeColor=none;fillColor=none;align=center;verticalAlign=middle;spacingLeft=4;spacingRight=4;overflow=hidden;rotatable=0;points=[[0,0.5],[1,0.5]];portConstraint=eastwest;whiteSpace=wrap;" vertex="1" parent="P2snbEfWk6xn78w6VL1k-42">
          <mxGeometry y="129" width="240" height="25" as="geometry" />
        </mxCell>
        <mxCell id="P2snbEfWk6xn78w6VL1k-50" value="will_topic: String" style="text;html=1;strokeColor=none;fillColor=none;align=center;verticalAlign=middle;spacingLeft=4;spacingRight=4;overflow=hidden;rotatable=0;points=[[0,0.5],[1,0.5]];portConstraint=eastwest;whiteSpace=wrap;" vertex="1" parent="P2snbEfWk6xn78w6VL1k-42">
          <mxGeometry y="154" width="240" height="25" as="geometry" />
        </mxCell>
        <mxCell id="P2snbEfWk6xn78w6VL1k-51" value="will_text: String" style="text;html=1;strokeColor=none;fillColor=none;align=center;verticalAlign=middle;spacingLeft=4;spacingRight=4;overflow=hidden;rotatable=0;points=[[0,0.5],[1,0.5]];portConstraint=eastwest;whiteSpace=wrap;" vertex="1" parent="P2snbEfWk6xn78w6VL1k-42">
          <mxGeometry y="179" width="240" height="25" as="geometry" />
        </mxCell>
        <mxCell id="P2snbEfWk6xn78w6VL1k-52" value="will_retain: bool" style="text;html=1;strokeColor=none;fillColor=none;align=center;verticalAlign=middle;spacingLeft=4;spacingRight=4;overflow=hidden;rotatable=0;points=[[0,0.5],[1,0.5]];portConstraint=eastwest;whiteSpace=wrap;" vertex="1" parent="P2snbEfWk6xn78w6VL1k-42">
          <mxGeometry y="204" width="240" height="25" as="geometry" />
        </mxCell>
        <mxCell id="P2snbEfWk6xn78w6VL1k-53" value="will_qos: u8" style="text;html=1;strokeColor=none;fillColor=none;align=center;verticalAlign=middle;spacingLeft=4;spacingRight=4;overflow=hidden;rotatable=0;points=[[0,0.5],[1,0.5]];portConstraint=eastwest;whiteSpace=wrap;" vertex="1" parent="P2snbEfWk6xn78w6VL1k-42">
          <mxGeometry y="229" width="240" height="25" as="geometry" />
        </mxCell>
        <mxCell id="P2snbEfWk6xn78w6VL1k-55" value="clean_session: bool" style="text;html=1;strokeColor=none;fillColor=none;align=center;verticalAlign=middle;spacingLeft=4;spacingRight=4;overflow=hidden;rotatable=0;points=[[0,0.5],[1,0.5]];portConstraint=eastwest;whiteSpace=wrap;" vertex="1" parent="P2snbEfWk6xn78w6VL1k-42">
          <mxGeometry y="254" width="240" height="25" as="geometry" />
        </mxCell>
        <mxCell id="P2snbEfWk6xn78w6VL1k-56" value="keep_alive_seconds: usize" style="text;html=1;strokeColor=none;fillColor=none;align=center;verticalAlign=middle;spacingLeft=4;spacingRight=4;overflow=hidden;rotatable=0;points=[[0,0.5],[1,0.5]];portConstraint=eastwest;whiteSpace=wrap;" vertex="1" parent="P2snbEfWk6xn78w6VL1k-42">
          <mxGeometry y="279" width="240" height="25" as="geometry" />
        </mxCell>
        <mxCell id="P2snbEfWk6xn78w6VL1k-57" value="tcp_stream: TcpStream" style="text;html=1;strokeColor=none;fillColor=none;align=center;verticalAlign=middle;spacingLeft=4;spacingRight=4;overflow=hidden;rotatable=0;points=[[0,0.5],[1,0.5]];portConstraint=eastwest;whiteSpace=wrap;" vertex="1" parent="P2snbEfWk6xn78w6VL1k-42">
          <mxGeometry y="304" width="240" height="25" as="geometry" />
        </mxCell>
        <mxCell id="P2snbEfWk6xn78w6VL1k-64" style="edgeStyle=orthogonalEdgeStyle;rounded=0;orthogonalLoop=1;jettySize=auto;html=1;entryX=0.004;entryY=0.047;entryDx=0;entryDy=0;entryPerimeter=0;endArrow=none;endFill=0;" edge="1" parent="1" source="P2snbEfWk6xn78w6VL1k-39" target="P2snbEfWk6xn78w6VL1k-42">
          <mxGeometry relative="1" as="geometry" />
        </mxCell>
        <mxCell id="P2snbEfWk6xn78w6VL1k-66" value="1" style="edgeLabel;html=1;align=center;verticalAlign=middle;resizable=0;points=[];" vertex="1" connectable="0" parent="P2snbEfWk6xn78w6VL1k-64">
          <mxGeometry x="-0.804" relative="1" as="geometry">
            <mxPoint y="-17" as="offset" />
          </mxGeometry>
        </mxCell>
        <mxCell id="P2snbEfWk6xn78w6VL1k-67" value="0..n" style="edgeLabel;html=1;align=center;verticalAlign=middle;resizable=0;points=[];" vertex="1" connectable="0" parent="P2snbEfWk6xn78w6VL1k-64">
          <mxGeometry x="0.7638" y="-1" relative="1" as="geometry">
            <mxPoint x="-11" y="14" as="offset" />
          </mxGeometry>
        </mxCell>
        <mxCell id="P2snbEfWk6xn78w6VL1k-68" value="Subscription" style="swimlane;fontStyle=1;align=center;verticalAlign=middle;childLayout=stackLayout;horizontal=1;startSize=29;horizontalStack=0;resizeParent=1;resizeParentMax=0;resizeLast=0;collapsible=0;marginBottom=0;html=1;whiteSpace=wrap;" vertex="1" parent="1">
          <mxGeometry x="1760" y="260" width="230" height="104" as="geometry" />
        </mxCell>
        <mxCell id="P2snbEfWk6xn78w6VL1k-69" value="topic_title: String" style="text;html=1;strokeColor=none;fillColor=none;align=center;verticalAlign=middle;spacingLeft=4;spacingRight=4;overflow=hidden;rotatable=0;points=[[0,0.5],[1,0.5]];portConstraint=eastwest;whiteSpace=wrap;" vertex="1" parent="P2snbEfWk6xn78w6VL1k-68">
          <mxGeometry y="29" width="230" height="25" as="geometry" />
        </mxCell>
        <mxCell id="P2snbEfWk6xn78w6VL1k-70" value="sub_qos: u8" style="text;html=1;strokeColor=none;fillColor=none;align=center;verticalAlign=middle;spacingLeft=4;spacingRight=4;overflow=hidden;rotatable=0;points=[[0,0.5],[1,0.5]];portConstraint=eastwest;whiteSpace=wrap;" vertex="1" parent="P2snbEfWk6xn78w6VL1k-68">
          <mxGeometry y="54" width="230" height="25" as="geometry" />
        </mxCell>
        <mxCell id="P2snbEfWk6xn78w6VL1k-71" value="messages: Vec&amp;lt;SubscriptionMessage&amp;gt;" style="text;html=1;strokeColor=none;fillColor=none;align=center;verticalAlign=middle;spacingLeft=4;spacingRight=4;overflow=hidden;rotatable=0;points=[[0,0.5],[1,0.5]];portConstraint=eastwest;whiteSpace=wrap;" vertex="1" parent="P2snbEfWk6xn78w6VL1k-68">
          <mxGeometry y="79" width="230" height="25" as="geometry" />
        </mxCell>
        <mxCell id="P2snbEfWk6xn78w6VL1k-75" value="SubscriptionMessage" style="swimlane;fontStyle=1;align=center;verticalAlign=middle;childLayout=stackLayout;horizontal=1;startSize=29;horizontalStack=0;resizeParent=1;resizeParentMax=0;resizeLast=0;collapsible=0;marginBottom=0;html=1;whiteSpace=wrap;" vertex="1" parent="1">
          <mxGeometry x="1760" y="410" width="230" height="179" as="geometry" />
        </mxCell>
        <mxCell id="P2snbEfWk6xn78w6VL1k-76" value="packet_identifier: u16" style="text;html=1;strokeColor=none;fillColor=none;align=center;verticalAlign=middle;spacingLeft=4;spacingRight=4;overflow=hidden;rotatable=0;points=[[0,0.5],[1,0.5]];portConstraint=eastwest;whiteSpace=wrap;" vertex="1" parent="P2snbEfWk6xn78w6VL1k-75">
          <mxGeometry y="29" width="230" height="25" as="geometry" />
        </mxCell>
        <mxCell id="P2snbEfWk6xn78w6VL1k-77" value="message: String" style="text;html=1;strokeColor=none;fillColor=none;align=center;verticalAlign=middle;spacingLeft=4;spacingRight=4;overflow=hidden;rotatable=0;points=[[0,0.5],[1,0.5]];portConstraint=eastwest;whiteSpace=wrap;" vertex="1" parent="P2snbEfWk6xn78w6VL1k-75">
          <mxGeometry y="54" width="230" height="25" as="geometry" />
        </mxCell>
        <mxCell id="P2snbEfWk6xn78w6VL1k-78" value="message_qos: u8" style="text;html=1;strokeColor=none;fillColor=none;align=center;verticalAlign=middle;spacingLeft=4;spacingRight=4;overflow=hidden;rotatable=0;points=[[0,0.5],[1,0.5]];portConstraint=eastwest;whiteSpace=wrap;" vertex="1" parent="P2snbEfWk6xn78w6VL1k-75">
          <mxGeometry y="79" width="230" height="25" as="geometry" />
        </mxCell>
        <mxCell id="P2snbEfWk6xn78w6VL1k-79" value="&amp;nbsp;message_state: MessageState" style="text;html=1;strokeColor=none;fillColor=none;align=center;verticalAlign=middle;spacingLeft=4;spacingRight=4;overflow=hidden;rotatable=0;points=[[0,0.5],[1,0.5]];portConstraint=eastwest;whiteSpace=wrap;" vertex="1" parent="P2snbEfWk6xn78w6VL1k-75">
          <mxGeometry y="104" width="230" height="25" as="geometry" />
        </mxCell>
        <mxCell id="P2snbEfWk6xn78w6VL1k-80" value="last_updated: OffsetDateTime" style="text;html=1;strokeColor=none;fillColor=none;align=center;verticalAlign=middle;spacingLeft=4;spacingRight=4;overflow=hidden;rotatable=0;points=[[0,0.5],[1,0.5]];portConstraint=eastwest;whiteSpace=wrap;" vertex="1" parent="P2snbEfWk6xn78w6VL1k-75">
          <mxGeometry y="129" width="230" height="25" as="geometry" />
        </mxCell>
        <mxCell id="P2snbEfWk6xn78w6VL1k-81" value="retry_count: u8" style="text;html=1;strokeColor=none;fillColor=none;align=center;verticalAlign=middle;spacingLeft=4;spacingRight=4;overflow=hidden;rotatable=0;points=[[0,0.5],[1,0.5]];portConstraint=eastwest;whiteSpace=wrap;" vertex="1" parent="P2snbEfWk6xn78w6VL1k-75">
          <mxGeometry y="154" width="230" height="25" as="geometry" />
        </mxCell>
        <mxCell id="P2snbEfWk6xn78w6VL1k-85" style="edgeStyle=orthogonalEdgeStyle;rounded=0;orthogonalLoop=1;jettySize=auto;html=1;entryX=0.009;entryY=0.17;entryDx=0;entryDy=0;entryPerimeter=0;endArrow=none;endFill=0;" edge="1" parent="1" source="P2snbEfWk6xn78w6VL1k-47" target="P2snbEfWk6xn78w6VL1k-68">
          <mxGeometry relative="1" as="geometry" />
        </mxCell>
        <mxCell id="P2snbEfWk6xn78w6VL1k-86" value="1" style="edgeLabel;html=1;align=center;verticalAlign=middle;resizable=0;points=[];" vertex="1" connectable="0" parent="P2snbEfWk6xn78w6VL1k-85">
          <mxGeometry x="-0.9181" y="-1" relative="1" as="geometry">
            <mxPoint y="7" as="offset" />
          </mxGeometry>
        </mxCell>
        <mxCell id="P2snbEfWk6xn78w6VL1k-87" value="0..n" style="edgeLabel;html=1;align=center;verticalAlign=middle;resizable=0;points=[];" vertex="1" connectable="0" parent="P2snbEfWk6xn78w6VL1k-85">
          <mxGeometry x="0.8744" y="1" relative="1" as="geometry">
            <mxPoint x="-13" y="13" as="offset" />
          </mxGeometry>
        </mxCell>
        <mxCell id="P2snbEfWk6xn78w6VL1k-88" style="edgeStyle=orthogonalEdgeStyle;rounded=0;orthogonalLoop=1;jettySize=auto;html=1;entryX=1.001;entryY=0.102;entryDx=0;entryDy=0;entryPerimeter=0;exitX=1;exitY=0.5;exitDx=0;exitDy=0;endArrow=none;endFill=0;" edge="1" parent="1" source="P2snbEfWk6xn78w6VL1k-71" target="P2snbEfWk6xn78w6VL1k-75">
          <mxGeometry relative="1" as="geometry" />
        </mxCell>
        <mxCell id="P2snbEfWk6xn78w6VL1k-89" value="1" style="edgeLabel;html=1;align=center;verticalAlign=middle;resizable=0;points=[];" vertex="1" connectable="0" parent="P2snbEfWk6xn78w6VL1k-88">
          <mxGeometry x="-0.8772" relative="1" as="geometry">
            <mxPoint y="-12" as="offset" />
          </mxGeometry>
        </mxCell>
        <mxCell id="P2snbEfWk6xn78w6VL1k-90" value="0..n" style="edgeLabel;html=1;align=center;verticalAlign=middle;resizable=0;points=[];" vertex="1" connectable="0" parent="P2snbEfWk6xn78w6VL1k-88">
          <mxGeometry x="0.8013" relative="1" as="geometry">
            <mxPoint y="14" as="offset" />
          </mxGeometry>
        </mxCell>
      </root>
    </mxGraphModel>
  </diagram>
</mxfile>
